<?xml version="1.0" encoding="utf-8"?>
<!-- Generator: Adobe Illustrator 16.0.0, SVG Export Plug-In . SVG Version: 6.00 Build 0)  -->
<!DOCTYPE svg PUBLIC "-//W3C//DTD SVG 1.1//EN" "http://www.w3.org/Graphics/SVG/1.1/DTD/svg11.dtd">
<svg version="1.1" id="Layer_1" xmlns="http://www.w3.org/2000/svg" xmlns:xlink="http://www.w3.org/1999/xlink" x="0px" y="0px"
	 width="200px" height="200px" viewBox="0 0 200 200" enable-background="new 0 0 200 200" xml:space="preserve">
<filter  width="198" height="198" id="Ellipse_16" filterUnits="userSpaceOnUse" y="4" x="1">
	<feOffset  input="SourceAlpha" dy="3"></feOffset>
	<feGaussianBlur  result="blur" stdDeviation="3"></feGaussianBlur>
	<feFlood  flood-opacity="0.161"></feFlood>
	<feComposite  in2="blur" operator="in"></feComposite>
	<feComposite  in="SourceGraphic" operator="over"></feComposite>
</filter>
<g>
	<defs>
		<rect id="SVGID_1_" width="200" height="200"/>
	</defs>
	<clipPath id="SVGID_2_">
		<use xlink:href="#SVGID_1_"  overflow="visible"/>
	</clipPath>
	<g id="tambah-gedung" clip-path="url(#SVGID_2_)">
		<rect fill="#FFFFFF" width="200" height="200"/>
		<g id="Group_379" transform="translate(9.667 9.667)">
			<g id="Group_360">
				<g transform="matrix(1, 0, 0, 1, -9.67, -9.67)" filter="url(#Ellipse_16)">
					<circle id="Ellipse_16-2_1_" fill="#FFFFFF" cx="100" cy="100" r="90"/>
				</g>
			</g>
		</g>
	</g>
</g>
<g display="none">
	<path display="inline" fill="#477B9E" d="M138.127,73.921v-2.018c0-5.172-4.214-9.404-9.364-9.404h-28.054
		c-5.15,0-9.365,4.232-9.365,9.404v2.018H138.127z"/>
	<path display="inline" fill="#3F6D8E" d="M112.948,62.499h-12.239c-5.15,0-9.365,4.232-9.365,9.404v2.018h12.241v-2.018
		C103.585,66.73,107.797,62.499,112.948,62.499z"/>
	<path display="inline" fill="#3F6D8E" d="M75.936,86.933v47.103c0,3.315-2.712,6.028-6.028,6.028h79.25
		c3.315,0,6.028-2.713,6.028-6.028V86.933H75.936z"/>
	<path display="inline" fill="#365E7D" d="M87.585,134.036V86.933h-11.65v47.103c0,3.315-2.712,6.028-6.028,6.028h11.65
		C84.873,140.063,87.585,137.351,87.585,134.036z"/>
	<path display="inline" fill="#B5DCFF" d="M149.158,73.872h-79.25c3.315,0,6.028,2.712,6.028,6.028v7.468h79.251V79.9
		C155.187,76.584,152.474,73.872,149.158,73.872z"/>
	<path display="inline" fill="#B5DCFF" d="M149.158,73.872h-79.25c3.315,0,6.028,2.712,6.028,6.028v7.468h79.251V79.9
		C155.187,76.584,152.474,73.872,149.158,73.872z"/>
	<path display="inline" fill="#8BCAFF" d="M81.558,73.872h-11.65c3.315,0,6.028,2.712,6.028,6.028v7.468h11.65V79.9
		C87.585,76.584,84.873,73.872,81.558,73.872z"/>
	<path display="inline" fill="#477B9E" d="M67.063,65.316H56.448c-1.501,0-2.729,1.233-2.729,2.741v3.122
		c0,1.508,1.228,2.742,2.729,2.742h10.615c1.501,0,2.729-1.234,2.729-2.742v-3.122C69.793,66.55,68.564,65.316,67.063,65.316z"/>
	<path display="inline" fill="#3F6D8E" d="M61.755,71.179v-3.122c0-1.508,1.229-2.741,2.73-2.741h-8.037
		c-1.501,0-2.729,1.233-2.729,2.741v3.122c0,1.508,1.228,2.742,2.729,2.742h8.037C62.984,73.921,61.755,72.687,61.755,71.179z"/>
	<path display="inline" fill="#477B9E" d="M47.142,86.933v47.103c0,3.315,2.712,6.028,6.027,6.028h17.173
		c3.315,0,6.028-2.713,6.028-6.028V86.933H47.142z"/>
	<path display="inline" fill="#3F6D8E" d="M58.05,134.036V86.933H47.142v47.103c0,3.315,2.712,6.028,6.027,6.028h10.909
		C60.763,140.063,58.05,137.351,58.05,134.036z"/>
	<path display="inline" fill="#DBEDFF" d="M70.342,73.872H53.169c-3.315,0-6.027,2.712-6.027,6.028v7.468h29.229V79.9
		C76.371,76.584,73.657,73.872,70.342,73.872z"/>
	<path display="inline" fill="#B5DCFF" d="M64.078,73.872H53.169c-3.315,0-6.027,2.712-6.027,6.028v7.468H58.05V79.9
		C58.05,76.584,60.763,73.872,64.078,73.872z"/>
	<g display="inline">
		<g>
			<path fill="#365E7D" d="M114.735,143.476c-17.35,0-31.465-14.115-31.465-31.466s14.115-31.466,31.465-31.466
				c17.351,0,31.465,14.116,31.465,31.466S132.086,143.476,114.735,143.476L114.735,143.476z"/>
		</g>
	</g>
	<path display="inline" fill="#294B64" d="M93.834,112.01c0-15.55,11.339-28.5,26.184-31.02c-1.719-0.292-3.484-0.446-5.283-0.446
		c-17.35,0-31.465,14.116-31.465,31.466s14.115,31.466,31.465,31.466c1.799,0,3.564-0.154,5.283-0.446
		C105.174,140.51,93.834,127.559,93.834,112.01L93.834,112.01z"/>
	<ellipse display="inline" fill="#7FB3FA" cx="114.722" cy="112.01" rx="24.638" ry="24.638"/>
	<path display="inline" fill="#64A6F4" d="M100.659,112.01c0-11.774,8.301-21.645,19.359-24.069
		c-1.702-0.374-3.47-0.572-5.283-0.572c-13.588,0-24.642,11.054-24.642,24.643c0,13.587,11.055,24.64,24.642,24.64
		c1.813,0,3.581-0.197,5.283-0.57C108.96,133.655,100.659,123.784,100.659,112.01L100.659,112.01z"/>
	<ellipse display="inline" fill="#64A6F4" cx="114.722" cy="112.01" rx="15.102" ry="15.102"/>
	<path display="inline" fill="#3D8BD8" d="M110.195,112.01c0-6.471,4.092-12.003,9.824-14.148c-1.646-0.617-3.427-0.957-5.284-0.957
		c-8.328,0-15.104,6.776-15.104,15.105c0,8.328,6.776,15.104,15.104,15.104c1.857,0,3.638-0.34,5.284-0.955
		C114.287,124.012,110.195,118.48,110.195,112.01z"/>
	<ellipse display="inline" fill="#9CC5FA" cx="114.722" cy="112.01" rx="4.602" ry="4.602"/>
	<path display="inline" fill="#7FB3FA" d="M114.735,112.01c0-1.699,0.928-3.184,2.301-3.979c-0.677-0.394-1.461-0.624-2.301-0.624
		c-2.538,0-4.603,2.065-4.603,4.604s2.064,4.604,4.603,4.604c0.84,0,1.624-0.23,2.301-0.623
		C115.663,115.193,114.735,113.708,114.735,112.01z"/>
</g>
<path fill="#F6C358" d="M53.311,62.223h25.974c1.701,0,3.272,0.909,4.121,2.383l4.275,5.839c0.849,1.474,2.421,2.383,4.122,2.383
	h63.267v66.676c0,3.501-2.839,6.34-6.341,6.34H52.804c-3.501,0-6.34-2.839-6.34-6.34v-59.28c0-4.901,0.757-9.773,2.245-14.443l0,0
	C49.253,63.686,51.146,62.223,53.311,62.223z"/>
<rect x="56.347" y="71.738" fill="#EBF0F3" width="83.481" height="35.265"/>
<path fill="#FCD462" d="M150.313,65.393H124.14c-1.862,0-3.551,1.086-4.324,2.779l-4.479,9.803
	c-0.774,1.692-2.465,2.778-4.327,2.778H46.464v60.334c0,3.503,2.839,6.341,6.34,6.341h95.924c3.502,0,6.341-2.838,6.341-6.341
	v-70.94C155.069,67.522,152.94,65.393,150.313,65.393z"/>
</svg>
